<?xml version="1.0" encoding="utf-8"?>
<!-- Generator: Adobe Illustrator 19.0.0, SVG Export Plug-In . SVG Version: 6.00 Build 0)  -->
<svg version="1.1" id="Слой_1" xmlns="http://www.w3.org/2000/svg" xmlns:xlink="http://www.w3.org/1999/xlink" x="0px" y="0px"
	 viewBox="-398 541.8 54.1 51.1" style="enable-background:new -398 541.8 54.1 51.1;" xml:space="preserve">
<style type="text/css">
	.st0{fill:#287BA5;}
</style>
<g id="XMLID_6_">
	<polygon id="XMLID_9_" class="st0" points="-379.5,568.6 -380.7,568.6 -380.7,572.1 -384.4,572.1 -384.4,573.4 -380.7,573.4 
		-380.7,576.9 -379.5,576.9 -379.5,573.4 -375.9,573.4 -375.9,572.1 -379.5,572.1 	"/>
	<path id="XMLID_29_" class="st0" d="M-353.2,564.4c-0.1-0.2-0.3-0.3-0.5-0.3l-2.9-5.1c0.1-0.1,0.1-0.3,0.1-0.4
		c0-0.2-0.1-0.4-0.2-0.6c-0.2-0.2-0.4-0.3-0.6-0.3l-3.2-5.6c0-0.1,0.1-0.2,0.1-0.3c0-0.2-0.1-0.5-0.3-0.6c-0.2-0.2-0.4-0.3-0.6-0.3
		c-0.3,0-0.5,0.1-0.7,0.3h-6.2c-0.2-0.2-0.4-0.3-0.7-0.3c-0.3,0-0.5,0.1-0.7,0.3h-6.2c-0.2-0.2-0.4-0.3-0.7-0.3
		c-0.2,0-0.4,0.1-0.6,0.3s-0.3,0.4-0.3,0.6c0,0.1,0,0.2,0.1,0.3l-3.3,5.7c-0.4,0.2-0.5,0.4-0.5,0.8l0,0l0,0l-3.1,5.4h-0.1
		c-0.1,0-0.2,0.1-0.3,0.1c-3.1,1.7-5.2,5-5.2,8.7c0,5.3,4.3,9.7,9.7,9.7c3.2,0,6-1.5,7.7-3.9h2.8c0.2,0.2,0.4,0.3,0.7,0.3
		c0.3,0,0.5-0.1,0.7-0.3h6.2c0.2,0.2,0.4,0.3,0.6,0.3c0.2,0,0.5-0.1,0.6-0.3c0.2-0.2,0.3-0.4,0.3-0.6c0-0.1,0-0.2,0-0.2l3-5.3
		c0.2,0,0.4-0.1,0.5-0.3s0.2-0.3,0.2-0.6c0-0.1,0-0.2,0-0.3l3.2-5.6c0.2,0,0.4-0.1,0.5-0.3c0.1-0.2,0.2-0.4,0.2-0.6
		C-353,564.7-353,564.5-353.2,564.4z M-357.8,559.4L-357.8,559.4l-2,9.8l-3.7-3.9L-357.8,559.4L-357.8,559.4z M-373,566.2l4,4.1
		l-1,1h-0.5C-370.9,569.4-371.7,567.6-373,566.2z M-373.4,565.9c-0.2-0.2-0.3-0.3-0.5-0.5l0,0L-373.4,565.9z M-373.6,565.1l4.6-4.9
		l4.8,5.1l-4.6,4.8L-373.6,565.1z M-368.7,570.7l0.7,0.7h-1.3L-368.7,570.7z M-368.4,570.4l4.6-4.8l3.9,4.2l-0.3,1.6h-7.2
		L-368.4,570.4z M-361.8,552.6c0.1,0,0.2,0.1,0.2,0.1l3.4,5.9l0,0c0,0.2,0,0.3,0.1,0.5l-5.7,5.9l-4.9-5.2L-361.8,552.6z
		 M-362.4,552.5l-6.6,7l-3.3-3.5l9.7-3.5C-362.6,552.5-362.4,552.5-362.4,552.5z M-369.6,552.5c0.2,0.2,0.4,0.2,0.6,0.2
		s0.4-0.1,0.6-0.2h4.4l-8.7,3.1l-3-3.1C-375.7,552.5-369.6,552.5-369.6,552.5z M-376.3,552.8L-376.3,552.8c0.1-0.1,0.2-0.1,0.3-0.1
		l3,3.1l-3.2,1.2L-376.3,552.8L-376.3,552.8z M-376.3,557.4l3.5-1.3l3.5,3.7l-4.6,4.9l-2.4-2.5V557.4z M-374.2,565L-374.2,565
		c-0.7-0.4-1.4-0.8-2.1-1.1v-1.1L-374.2,565z M-376.8,553.6v3.5l-2.5,0.9L-376.8,553.6z M-379.4,558.5L-379.4,558.5l2.6-1v4.3
		l-2.7-2.8C-379.4,558.9-379.4,558.7-379.4,558.5C-379.4,558.6-379.4,558.6-379.4,558.5z M-380.2,559.5c0.2,0,0.3-0.1,0.5-0.2l2.9,3
		v1.4c-1-0.4-2.2-0.6-3.3-0.6c-0.8,0-1.6,0.1-2.3,0.3L-380.2,559.5z M-380.1,581.5c-4.8,0-8.7-3.9-8.7-8.7c0-3.1,1.6-5.8,4.1-7.3
		l0,0c0.2-0.2,0.5-0.3,0.8-0.4l0,0c0.3-0.1,0.5-0.2,0.8-0.4l0,0c1-0.4,2-0.6,3.1-0.6c1.2,0,2.3,0.2,3.3,0.7c0.2,0.1,0.3,0.1,0.5,0.2
		c0.5,0.2,0.9,0.5,1.4,0.8c0.1,0.1,0.2,0.2,0.4,0.3c1.9,1.6,3.2,4,3.2,6.7c0,1.7-0.5,3.3-1.3,4.6c-0.3,0.4-0.6,0.8-0.9,1.2
		C-375.3,580.4-377.6,581.5-380.1,581.5z M-368.4,577.4c-0.2-0.2-0.4-0.2-0.6-0.2s-0.4,0.1-0.6,0.2h-2c0.7-1.4,1.2-2.9,1.2-4.6
		c0-0.1,0-0.2,0-0.3l0.6-0.6h2.2l5.3,5.5H-368.4z M-361.4,576.7l-0.2,0.4c-0.1,0-0.1,0-0.2,0.1l-5.2-5.3h6.7L-361.4,576.7z
		 M-360.6,575.4l0.8-3.5h1.3L-360.6,575.4z M-358.6,571.4h-1.2l0.3-1.2l1,1.1C-358.5,571.3-358.6,571.3-358.6,571.4z M-354.7,565.1
		l-3.2,5.7c-0.1,0-0.2,0.1-0.2,0.1l-1.2-1.3l2-9.6l2.7,4.6c0,0.2,0,0.2,0,0.2C-354.7,565-354.7,565-354.7,565.1z"/>
</g>
</svg>
