<?xml version="1.0" encoding="utf-8"?>
<!-- Generator: Adobe Illustrator 19.0.0, SVG Export Plug-In . SVG Version: 6.00 Build 0)  -->
<svg version="1.1" id="Слой_1" xmlns="http://www.w3.org/2000/svg" xmlns:xlink="http://www.w3.org/1999/xlink" x="0px" y="0px"
	 viewBox="-398 541.8 54.1 51.1" style="enable-background:new -398 541.8 54.1 51.1;" xml:space="preserve">
<style type="text/css">
	.st0{fill:#287BA5;}
</style>
<g id="XMLID_4_">
	<polygon id="XMLID_5_" class="st0" points="-379.4,567.5 -380.6,567.5 -380.6,571 -384.3,571 -384.3,572.3 -380.6,572.3 
		-380.6,575.8 -379.4,575.8 -379.4,572.3 -375.8,572.3 -375.8,571 -379.4,571 	"/>
	<path id="XMLID_34_" class="st0" d="M-353.4,552.3c-0.2-0.2-0.4-0.3-0.7-0.3h-26c-0.3,0-0.5,0.1-0.7,0.3c-0.2,0.2-0.3,0.4-0.3,0.7
		v4c0,0.3,0.1,0.5,0.3,0.7c0.2,0.2,0.4,0.3,0.7,0.3h26c0.3,0,0.5-0.1,0.7-0.3c0.2-0.2,0.3-0.4,0.3-0.7v-4
		C-353.1,552.8-353.2,552.5-353.4,552.3z M-355.1,556h-6v-2h6V556z"/>
	<path id="XMLID_37_" class="st0" d="M-354.1,560h-26c-0.3,0-0.5,0.1-0.7,0.3c-0.2,0.2-0.3,0.4-0.3,0.7v1c-4.9,0.5-8.7,4.6-8.7,9.6
		c0,5.3,4.3,9.7,9.7,9.7c4.5,0,8.3-3.1,9.4-7.3h16.6c0.3,0,0.5-0.1,0.7-0.3c0.2-0.2,0.3-0.4,0.3-0.7v-4c0-0.3-0.1-0.5-0.3-0.7
		c-0.2-0.2-0.4-0.3-0.7-0.3h-17c-0.3-0.7-0.7-1.4-1.1-2h18.1c0.3,0,0.5-0.1,0.7-0.3c0.2-0.2,0.3-0.4,0.3-0.7v-4
		c0-0.3-0.1-0.5-0.3-0.7C-353.6,560.1-353.8,560-354.1,560z M-380,580.4c-4.8,0-8.7-3.9-8.7-8.7c0-4.4,3.4-8.1,7.7-8.6l0,0
		c0.3,0,0.7-0.1,1-0.1l0,0c0.3,0,0.6,0,0.9,0.1c0.1,0,0.2,0,0.3,0c0.2,0,0.4,0.1,0.6,0.1c0.1,0,0.2,0.1,0.3,0.1
		c0.2,0.1,0.4,0.1,0.6,0.2c0.1,0,0.2,0.1,0.3,0.1c0.2,0.1,0.4,0.1,0.6,0.2c0.1,0,0.2,0.1,0.2,0.1c0.2,0.1,0.4,0.2,0.6,0.3
		c0.1,0,0.1,0.1,0.2,0.1c0.2,0.1,0.4,0.3,0.6,0.4l0.1,0.1c0.2,0.2,0.4,0.3,0.6,0.5c0,0,0.1,0,0.1,0.1c0.2,0.2,0.4,0.4,0.6,0.6
		c0.5,0.6,0.9,1.3,1.3,2c0.1,0.3,0.2,0.6,0.3,0.8l0,0c0.1,0.3,0.2,0.5,0.2,0.8v0.1c0.1,0.3,0.1,0.5,0.1,0.8c0,0.1,0,0.1,0,0.2
		c0,0.3,0.1,0.6,0.1,0.9l0,0l0,0c0,0.4,0,0.8-0.1,1.1c0,0.1,0,0.1,0,0.2c-0.1,0.4-0.1,0.7-0.2,1C-372.7,577.7-376.1,580.4-380,580.4
		z M-365.1,570h10v2h-10V570z M-355.1,564h-16v-2h16V564z"/>
</g>
</svg>
