<?xml version="1.0" encoding="utf-8"?>
<!-- Generator: Adobe Illustrator 19.0.0, SVG Export Plug-In . SVG Version: 6.00 Build 0)  -->
<svg version="1.1" id="Слой_1" xmlns="http://www.w3.org/2000/svg" xmlns:xlink="http://www.w3.org/1999/xlink" x="0px" y="0px"
	 viewBox="0 0 54.1 51.1" style="enable-background:new 0 0 54.1 51.1;" xml:space="preserve">
<style type="text/css">
	.st0{fill:#287BA5;}
</style>
<g id="XMLID_113_">
	<path id="XMLID_125_" class="st0" d="M37.4,34.7l-1.9-1.9c0.5-0.7,0.7-1.4,0.7-2.2c0-0.5-0.1-1-0.3-1.5c-0.2-0.5-0.5-0.9-0.8-1.3
		s-0.8-0.6-1.3-0.8c-0.5-0.2-1-0.3-1.5-0.3c-0.5,0-1,0.1-1.5,0.3c-0.5,0.2-0.9,0.5-1.3,0.8s-0.6,0.8-0.8,1.3c-0.2,0.5-0.3,1-0.3,1.5
		c0,0.5,0.1,1,0.3,1.5c0.2,0.5,0.5,0.9,0.8,1.3s0.8,0.6,1.3,0.8c0.5,0.2,1,0.3,1.5,0.3c0.8,0,1.6-0.2,2.2-0.7l1.9,1.9
		c0.1,0.1,0.3,0.2,0.5,0.2c0.2,0,0.4-0.1,0.5-0.2c0.1-0.1,0.2-0.3,0.2-0.5C37.6,35,37.5,34.9,37.4,34.7z M34,32.3
		c-0.5,0.5-1.1,0.7-1.8,0.7c-0.7,0-1.3-0.2-1.8-0.7c-0.5-0.5-0.7-1.1-0.7-1.8c0-0.7,0.2-1.3,0.7-1.8c0.5-0.5,1.1-0.7,1.8-0.7
		c0.7,0,1.3,0.2,1.8,0.7c0.5,0.5,0.7,1.1,0.7,1.8C34.7,31.3,34.5,31.9,34,32.3z"/>
	<path id="XMLID_126_" class="st0" d="M20.8,25.6h12c0.1,0,0.3,0,0.4-0.1c0.1-0.1,0.1-0.2,0.1-0.4v-1c0-0.1,0-0.3-0.1-0.4
		c-0.1-0.1-0.2-0.1-0.4-0.1h-12c-0.1,0-0.3,0-0.4,0.1c-0.1,0.1-0.1,0.2-0.1,0.4v1c0,0.1,0,0.3,0.1,0.4
		C20.5,25.5,20.7,25.6,20.8,25.6z"/>
	<path id="XMLID_127_" class="st0" d="M20.8,22.6h9c0.1,0,0.3,0,0.4-0.1c0.1-0.1,0.1-0.2,0.1-0.4v-1c0-0.1,0-0.3-0.1-0.4
		c-0.1-0.1-0.2-0.1-0.4-0.1h-9c-0.1,0-0.3,0-0.4,0.1c-0.1,0.1-0.1,0.2-0.1,0.4v1c0,0.1,0,0.3,0.1,0.4C20.5,22.5,20.7,22.6,20.8,22.6
		z"/>
	<path id="XMLID_128_" class="st0" d="M20.8,29.6c-0.1,0-0.3,0-0.4,0.1c-0.1,0.1-0.1,0.2-0.1,0.4v1c0,0.1,0,0.3,0.1,0.4
		c0.1,0.1,0.2,0.1,0.4,0.1h6.9c-0.1-0.3-0.1-0.7-0.1-1s0-0.7,0.1-1H20.8z"/>
	<path id="XMLID_129_" class="st0" d="M29.8,26.6h-9c-0.1,0-0.3,0-0.4,0.1c-0.1,0.1-0.1,0.2-0.1,0.4v1c0,0.1,0,0.3,0.1,0.4
		c0.1,0.1,0.2,0.1,0.4,0.1H28C28.4,27.7,29,27,29.8,26.6z"/>
</g>
</svg>
