<?xml version="1.0" encoding="utf-8"?>
<!-- Generator: Adobe Illustrator 19.0.0, SVG Export Plug-In . SVG Version: 6.00 Build 0)  -->
<svg version="1.1" id="Слой_1" xmlns="http://www.w3.org/2000/svg" xmlns:xlink="http://www.w3.org/1999/xlink" x="0px" y="0px"
	 viewBox="-398 541.8 54.1 51.1" style="enable-background:new -398 541.8 54.1 51.1;" xml:space="preserve">
<style type="text/css">
	.st0{fill:#287BA5;}
</style>
<g id="XMLID_1_">
	<polygon id="XMLID_3_" class="st0" points="-378.1,567.7 -379.3,567.7 -379.3,571.2 -383,571.2 -383,572.5 -379.3,572.5 
		-379.3,576 -378.1,576 -378.1,572.5 -374.5,572.5 -374.5,571.2 -378.1,571.2 	"/>
	<path id="XMLID_20_" class="st0" d="M-355.4,556.9c-0.7-0.7-1.5-1-2.5-1h-10.5v-0.5c0-1-0.3-1.8-1-2.5c-0.7-0.7-1.5-1-2.5-1h-5
		c-1,0-1.8,0.3-2.5,1c-0.7,0.7-1,1.5-1,2.5v7c-4.6,0.8-8.1,4.8-8.1,9.5c0,5.3,4.3,9.7,9.7,9.7c4.7,0,8.6-3.3,9.5-7.8h11.4
		c1,0,1.8-0.3,2.5-1c0.7-0.7,1-1.5,1-2.5v-11C-354.4,558.4-354.7,557.6-355.4,556.9z M-378.7,580.6c-4.8,0-8.7-3.9-8.7-8.7
		c0-4.2,3-7.8,7.1-8.5l0,0c0.3-0.1,0.5-0.1,0.8-0.1s0.5,0,0.8,0l0,0c4.8,0,8.7,3.9,8.7,8.7l0,0c0,0.3,0,0.6-0.1,1l0,0
		c0,0.3-0.1,0.6-0.2,0.9C-371.1,577.7-374.6,580.6-378.7,580.6z"/>
</g>
</svg>
